HIERARCHY
ROOT Hips
{
    OFFSET 0.000 93.594 0.000
    CHANNELS 6 Xposition Yposition Zposition Yrotation Xrotation Zrotation
    JOINT RightHip
    {
        OFFSET -9.500 -1.594 0.000
        CHANNELS 3 Yrotation Xrotation Zrotation
        JOINT RightKnee
        {
            OFFSET 0.000 -42.000 0.000
            CHANNELS 3 Yrotation Xrotation Zrotation
            JOINT RightAnkle
            {
                OFFSET 0.000 -42.000 0.000
                CHANNELS 3 Yrotation Xrotation Zrotation
                End Site
                {
                    OFFSET 0.000 -8.000 17.500
                }
            }
        }
    }
    JOINT LeftHip
    {
        OFFSET 9.500 -1.594 0.000
        CHANNELS 3 Yrotation Xrotation Zrotation
        JOINT LeftKnee
        {
            OFFSET 0.000 -42.000 0.000
            CHANNELS 3 Yrotation Xrotation Zrotation
            JOINT LeftAnkle
            {
                OFFSET 0.000 -42.000 0.000
                CHANNELS 3 Yrotation Xrotation Zrotation
                End Site
                {
                    OFFSET 0.000 -8.000 17.500
                }
            }
        }
    }
    JOINT Chest
    {
        OFFSET 0.000 14.348 0.000
        CHANNELS 3 Yrotation Xrotation Zrotation
        JOINT Chest2
        {
            OFFSET 0.000 9.746 0.000
            CHANNELS 3 Yrotation Xrotation Zrotation
            JOINT Chest3
            {
                OFFSET 0.000 10.149 0.000
                CHANNELS 3 Yrotation Xrotation Zrotation
                JOINT Chest4
                {
                    OFFSET 0.000 9.746 0.000
                    CHANNELS 3 Yrotation Xrotation Zrotation
                    JOINT Neck
                    {
                        OFFSET 0.000 10.417 0.000
                        CHANNELS 3 Yrotation Xrotation Zrotation
                        JOINT Head
                        {
                            OFFSET 0.000 9.000 0.000
                            CHANNELS 3 Yrotation Xrotation Zrotation
                            End Site
                            {
                                OFFSET 0.000 16.000 0.000
                            }
                        }
                    }
                    JOINT RightCollar
                    {
                        OFFSET -3.200 6.945 0.000
                        CHANNELS 3 Yrotation Xrotation Zrotation
                        JOINT RightShoulder
                        {
                            OFFSET -12.800 0.000 0.000
                            CHANNELS 3 Yrotation Xrotation Zrotation
                            JOINT RightElbow
                            {
OFFSET -0 -27 0.000
						CHANNELS 3 Xrotation Yrotation Zrotation
                                JOINT RightWrist
                                {
OFFSET -0 -26 0.000
						CHANNELS 3 Xrotation Yrotation Zrotation
                                    JOINT RightFinger0
                                    {
OFFSET -0.196 -2.56 3.210
						CHANNELS 3 Xrotation Yrotation Zrotation
                                        JOINT RightFinger01
                                        {
OFFSET -0 -3.788 0.000
						CHANNELS 3 Xrotation Yrotation Zrotation
                                            JOINT RightFinger0Nub
                                            {
OFFSET -0 -2.631 0.000
						CHANNELS 3 Xrotation Yrotation Zrotation
                                                End Site
                                                {
OFFSET 0 -2.256 0
                                                }
                                            }
                                        }
                                    }
                                    JOINT RightFinger1
                                    {
OFFSET -0.523 -3.316 2.035
						CHANNELS 3 Xrotation Yrotation Zrotation
                                        JOINT RightFinger11
                                        {
OFFSET 0.094 -5.366 1.028
						CHANNELS 3 Xrotation Yrotation Zrotation
                                            JOINT RightFinger12
                                            {
OFFSET -0 -3.723 0.000
						CHANNELS 3 Xrotation Yrotation Zrotation
                                                JOINT RightFinger1Nub
                                                {
OFFSET -0 -2.111 0.000
						CHANNELS 3 Xrotation Yrotation Zrotation
                                                    End Site
                                                    {
OFFSET 0 -1.857 0
                                                    }
                                                }
                                            }
                                        }
                                    }
                                    JOINT RightFinger2
                                    {
OFFSET -0.532 -3.479 0.778
						CHANNELS 3 Xrotation Yrotation Zrotation
                                        JOINT RightFinger21
                                        {
OFFSET 0.086 -5.322 0.323
						CHANNELS 3 Xrotation Yrotation Zrotation
                                            JOINT RightFinger22
                                            {
OFFSET -0 -4.062 0.000
						CHANNELS 3 Xrotation Yrotation Zrotation
                                                JOINT RightFinger2Nub
                                                {
OFFSET -0 -2.547 0.000
						CHANNELS 3 Xrotation Yrotation Zrotation
                                                    End Site
                                                    {
OFFSET 0 -2.031 0
                                                    }
                                                }
                                            }
                                        }
                                    }
                                    JOINT RightFinger3
                                    {
OFFSET -0.553 -3.461 -0.133
						CHANNELS 3 Xrotation Yrotation Zrotation
                                        JOINT RightFinger31
                                        {
OFFSET 0.023 -4.767 -0.493
						CHANNELS 3 Xrotation Yrotation Zrotation
                                            JOINT RightFinger32
                                            {
OFFSET -0 -3.541 0.000
						CHANNELS 3 Xrotation Yrotation Zrotation
                                                JOINT RightFinger3Nub
                                                {
OFFSET -0 -2.456 0.000
						CHANNELS 3 Xrotation Yrotation Zrotation
                                                    End Site
                                                    {
OFFSET 0 -1.91 0
                                                    }
                                                }
                                            }
                                        }
                                    }
                                    JOINT RightFinger4
                                    {
OFFSET -0.483 -3.251 -1.236
						CHANNELS 3 Xrotation Yrotation Zrotation
                                        JOINT RightFinger41
                                        {
OFFSET 0.023 -4.259 -1.122
						CHANNELS 3 Xrotation Yrotation Zrotation
                                            JOINT RightFinger42
                                            {
OFFSET -0 -2.835 0.000
						CHANNELS 3 Xrotation Yrotation Zrotation
                                                JOINT RightFinger4Nub
                                                {
OFFSET -0 -1.792 0.000
						CHANNELS 3 Xrotation Yrotation Zrotation
                                                    End Site
                                                    {
OFFSET 0 -1.692 0
                                                    }
                                                }
                                            }
                                        }
                                    }
                                }
                            }
                        }
                    }
                    JOINT LeftCollar
                    {
                        OFFSET 3.200 6.945 0.000
                        CHANNELS 3 Yrotation Xrotation Zrotation
                        JOINT LeftShoulder
                        {
                            OFFSET 12.800 0.000 0.000
                            CHANNELS 3 Yrotation Xrotation Zrotation
                            JOINT LeftElbow
                            {
OFFSET -0 -27 0.000
						CHANNELS 3 Xrotation Yrotation Zrotation
                                JOINT LeftWrist
                                {
OFFSET -0 -26 0.000
						CHANNELS 3 Xrotation Yrotation Zrotation
                                    JOINT LeftFinger0
                                    {
OFFSET -0.196 -2.56 3.210
						CHANNELS 3 Xrotation Yrotation Zrotation
                                        JOINT LeftFinger01
                                        {
OFFSET -0 -3.788 0.000
						CHANNELS 3 Xrotation Yrotation Zrotation
                                            JOINT LeftFinger0Nub
                                            {
OFFSET -0 -2.631 0.000
						CHANNELS 3 Xrotation Yrotation Zrotation
                                                End Site
                                                {
OFFSET 0 -2.256 0
                                                }
                                            }
                                        }
                                    }
                                    JOINT LeftFinger1
                                    {
OFFSET -0.523 -3.316 2.035
						CHANNELS 3 Xrotation Yrotation Zrotation
                                        JOINT LeftFinger11
                                        {
OFFSET 0.094 -5.366 1.028
						CHANNELS 3 Xrotation Yrotation Zrotation
                                            JOINT LeftFinger12
                                            {
OFFSET -0 -3.723 0.000
						CHANNELS 3 Xrotation Yrotation Zrotation
                                                JOINT LeftFinger1Nub
                                                {
OFFSET -0 -2.111 0.000
						CHANNELS 3 Xrotation Yrotation Zrotation
                                                    End Site
                                                    {
OFFSET 0 -1.857 0
                                                    }
                                                }
                                            }
                                        }
                                    }
                                    JOINT LeftFinger2
                                    {
OFFSET -0.532 -3.479 0.778
						CHANNELS 3 Xrotation Yrotation Zrotation
                                        JOINT LeftFinger21
                                        {
OFFSET 0.086 -5.322 0.323
						CHANNELS 3 Xrotation Yrotation Zrotation
                                            JOINT LeftFinger22
                                            {
OFFSET -0 -4.062 0.000
						CHANNELS 3 Xrotation Yrotation Zrotation
                                                JOINT LeftFinger2Nub
                                                {
OFFSET -0 -2.547 0.000
						CHANNELS 3 Xrotation Yrotation Zrotation
                                                    End Site
                                                    {
OFFSET 0 -2.031 0
                                                    }
                                                }
                                            }
                                        }
                                    }
                                    JOINT LeftFinger3
                                    {
OFFSET -0.553 -3.461 -0.133
						CHANNELS 3 Xrotation Yrotation Zrotation
                                        JOINT LeftFinger31
                                        {
OFFSET 0.023 -4.767 -0.493
						CHANNELS 3 Xrotation Yrotation Zrotation
                                            JOINT LeftFinger32
                                            {
OFFSET -0 -3.541 0.000
						CHANNELS 3 Xrotation Yrotation Zrotation
                                                JOINT LeftFinger3Nub
                                                {
OFFSET -0 -2.456 0.000
						CHANNELS 3 Xrotation Yrotation Zrotation
                                                    End Site
                                                    {
OFFSET 0 -1.91 0
                                                    }
                                                }
                                            }
                                        }
                                    }
                                    JOINT LeftFinger4
                                    {
OFFSET -0.483 -3.251 -1.236
						CHANNELS 3 Xrotation Yrotation Zrotation
                                        JOINT LeftFinger41
                                        {
OFFSET 0.023 -4.259 -1.122
						CHANNELS 3 Xrotation Yrotation Zrotation
                                            JOINT LeftFinger42
                                            {
OFFSET -0 -2.835 0.000
						CHANNELS 3 Xrotation Yrotation Zrotation
                                                JOINT LeftFinger4Nub
                                                {
OFFSET -0 -1.792 0.000
						CHANNELS 3 Xrotation Yrotation Zrotation
                                                    End Site
                                                    {
OFFSET 0 -1.692 0
                                                    }
                                                }
                                            }
                                        }
                                    }
                                }
                            }
                        }
                    }
                }
            }
        }
    }
}
MOTION

Frames: 12
Frame Time: 0.017
-222.11 92.41 56.21 126.33 4.79 -3.77 -2.78 -15.05 -4.16 0.00 21.36 0.00 -12.00 -8.72 9.73 0.19 -17.02 9.12 0.00 31.11 -0.00 21.52 -16.74 -10.96 -6.93 -8.17 0.34 -1.73 -1.79 -0.02 -2.88 -2.77 0.01 -1.37 4.14 0.38 8.33 66.29 17.86 -17.41 25.80 10.40 9.28 -2.00 -4.56 4.42 -19.32 -18.36 -48.98 -16.16 44.01 -11.44 11.01 -2.61 -46.97 -0 24.96 16.6 -0 -4.86 3.46 -0 0.00 0 -0 0.00 -15 -0 40.79 0 -0 50.48 0 -0 25.24 0 -0 0.00 0 -0 30.93 0 -0 30.93 0 -0 30.93 0 -0 0.00 15 -0 44.08 0 -0 44.08 0 -0 44.08 0 -0 0.00 25 -0 46.65 0 -0 46.65 0 -0 46.65 -12.42 -1.61 3.40 -10.20 -25.85 34.83 -30.93 47.5 -58.79 3.53 25.6 11.13 -15.87 0 -38.51 -21.70 0 5.70 1.49 0 0.00 0.00 0 0.00 -15.00 0 -9.36 0.00 0 -16.84 0.00 0 -8.42 0.00 0 0.00 0.00 0 -17.87 0.00 0 -17.87 0.00 0 -17.87 0.00 0 0.00 15.00 0 -35.35 0.00 0 -35.35 0.00 0 -35.35 0.00 0 0.00 25.00 0 -28.69 0.00 0 -28.69 0.00 0 -28.69 
-222.05 92.40 56.21 126.34 4.75 -3.79 -2.85 -15.01 -4.11 0.00 21.42 0.00 -11.92 -8.80 9.71 0.12 -16.95 9.18 0.00 31.12 0.00 21.57 -16.74 -11.00 -6.93 -8.18 0.36 -1.73 -1.79 -0.01 -2.88 -2.77 0.02 -1.37 4.15 0.38 8.36 66.33 17.89 -17.46 25.80 10.39 9.26 -2.00 -4.56 4.43 -19.30 -18.3 -49.03 -16.13 44.03 -11.44 10.89 -2.64 -46.97 -0 25.01 16.6 -0 -4.81 3.44 -0 0.00 0 -0 0.00 -15 -0 40.77 0 -0 50.48 0 -0 25.24 0 -0 0.00 0 -0 30.97 0 -0 30.97 0 -0 30.97 0 -0 0.00 15 -0 44.08 0 -0 44.08 0 -0 44.08 0 -0 0.00 25 -0 46.59 0 -0 46.59 0 -0 46.59 -12.49 -1.63 3.38 -10.18 -26.04 34.96 -28.66 48.05 -61.51 3.63 25.66 11.27 -15.91 0 -38.65 -21.78 0 5.57 0.43 0 0.00 0.00 0 0.00 -15.00 0 -9.25 0.00 0 -16.95 0.00 0 -8.48 0.00 0 0.00 0.00 0 -17.99 0.00 0 -17.99 0.00 0 -17.99 0.00 0 0.00 15.00 0 -35.21 0.00 0 -35.21 0.00 0 -35.21 0.00 0 0.00 25.00 0 -28.66 0.00 0 -28.66 0.00 0 -28.66 
-222.00 92.40 56.23 126.31 4.65 -3.84 -2.89 -14.92 -4.04 0.00 21.47 0.00 -11.88 -8.83 9.68 0.08 -16.83 9.26 -0.00 31.16 0.00 21.62 -16.74 -11.06 -6.91 -8.15 0.39 -1.73 -1.79 -0.00 -2.87 -2.76 0.03 -1.37 4.15 0.38 8.38 66.37 17.92 -17.49 25.81 10.38 9.23 -1.99 -4.56 4.54 -19.42 -18.13 -48.89 -15.98 43.86 -11.86 10.82 -2.27 -46.81 -0 24.91 16.91 -0 -4.91 3.26 -0 0.00 0 -0 0.00 -15 -0 40.81 0 -0 50.25 0 -0 25.12 0 -0 0.00 0 -0 30.86 0 -0 30.86 0 -0 30.86 0 -0 0.00 15 -0 43.96 0 -0 43.96 0 -0 43.96 0 -0 0.00 25 -0 46.44 0 -0 46.44 0 -0 46.44 -12.55 -1.64 3.36 -10.21 -26.16 35.09 -27.71 48.12 -62.91 3.55 25.62 11.31 -15.89 0 -38.96 -21.73 0 5.26 0.10 0 0.00 0.00 0 0.00 -15.00 0 -9.20 0.00 0 -17.01 0.00 0 -8.51 0.00 0 0.00 0.00 0 -18.07 0.00 0 -18.07 0.00 0 -18.07 0.00 0 0.00 15.00 0 -35.16 0.00 0 -35.16 0.00 0 -35.16 0.00 0 0.00 25.00 0 -28.28 0.00 0 -28.28 0.00 0 -28.28 
-221.97 92.40 56.26 126.29 4.62 -3.85 -2.88 -14.92 -4.00 0.00 21.51 0.00 -11.85 -8.87 9.65 0.02 -16.79 9.31 -0.00 31.17 -0.00 21.71 -16.72 -11.10 -6.91 -8.17 0.41 -1.73 -1.79 0.00 -2.87 -2.77 0.04 -1.37 4.15 0.38 8.38 66.39 17.91 -17.53 25.82 10.34 9.22 -1.98 -4.56 4.65 -19.45 -18.11 -48.82 -15.96 43.80 -12.04 10.85 -2.08 -46.75 -0 24.83 17.04 -0 -4.99 3.06 -0 0.00 0 -0 0.00 -15 -0 40.76 0 -0 50.15 0 -0 25.07 0 -0 0.00 0 -0 30.81 0 -0 30.81 0 -0 30.81 0 -0 0.00 15 -0 43.93 0 -0 43.93 0 -0 43.93 0 -0 0.00 25 -0 46.40 0 -0 46.40 0 -0 46.40 -12.59 -1.65 3.36 -10.35 -26.17 35.25 -28.31 47.78 -62.61 3.36 25.54 11.11 -15.79 0 -39.52 -21.53 0 4.70 0.66 0 0.00 0.00 0 0.00 -15.00 0 -9.22 0.00 0 -17.03 0.00 0 -8.51 0.00 0 0.00 0.00 0 -18.19 0.00 0 -18.19 0.00 0 -18.19 0.00 0 0.00 15.00 0 -35.27 0.00 0 -35.27 0.00 0 -35.27 0.00 0 0.00 25.00 0 -28.14 0.00 0 -28.14 0.00 0 -28.14 
-221.94 92.39 56.29 126.22 4.60 -3.88 -2.86 -14.93 -3.95 -0.00 21.57 0.00 -11.83 -8.87 9.61 -0.02 -16.76 9.36 -0.00 31.19 -0.00 21.81 -16.70 -11.16 -6.91 -8.18 0.44 -1.73 -1.79 0.01 -2.87 -2.77 0.05 -1.37 4.15 0.37 8.36 66.40 17.88 -17.55 25.85 10.29 9.24 -1.96 -4.55 4.74 -19.50 -18.09 -48.85 -15.96 43.78 -12.11 10.83 -1.98 -46.86 -0 24.93 16.82 -0 -4.89 3.38 -0 0.00 0 -0 0.00 -15 -0 40.74 0 -0 50.06 0 -0 25.03 0 -0 0.00 0 -0 30.78 0 -0 30.78 0 -0 30.78 0 -0 0.00 15 -0 43.91 0 -0 43.91 0 -0 43.91 0 -0 0.00 25 -0 46.36 0 -0 46.36 0 -0 46.36 -12.63 -1.65 3.35 -10.47 -26.04 35.41 -30.69 46.87 -60.56 2.94 25.31 10.65 -15.57 0 -40.29 -21.09 0 3.92 2.24 0 0.00 0.00 0 0.00 -15.00 0 -9.29 0.00 0 -17.02 0.00 0 -8.51 0.00 0 0.00 0.00 0 -17.79 0.00 0 -17.79 0.00 0 -17.79 0.00 0 0.00 15.00 0 -35.16 0.00 0 -35.16 0.00 0 -35.16 0.00 0 0.00 25.00 0 -28.60 0.00 0 -28.60 0.00 0 -28.60 
-221.91 92.39 56.33 126.16 4.57 -3.90 -2.83 -14.94 -3.89 -0.00 21.60 -0.00 -11.77 -8.89 9.57 -0.07 -16.72 9.43 -0.00 31.20 -0.00 21.93 -16.67 -11.21 -6.92 -8.18 0.46 -1.73 -1.79 0.01 -2.88 -2.77 0.06 -1.36 4.15 0.37 8.33 66.38 17.83 -17.55 25.89 10.22 9.25 -1.96 -4.54 4.85 -19.57 -18.07 -48.89 -15.99 43.77 -12.17 10.81 -1.89 -46.85 -0 24.90 16.83 -0 -4.92 3.36 -0 0.00 0 -0 0.00 -15 -0 40.71 0 -0 49.97 0 -0 24.99 0 -0 0.00 0 -0 30.73 0 -0 30.73 0 -0 30.73 0 -0 0.00 15 -0 43.87 0 -0 43.87 0 -0 43.87 0 -0 0.00 25 -0 46.29 0 -0 46.29 0 -0 46.29 -12.67 -1.64 3.36 -10.49 -25.80 35.54 -34.78 45.13 -56.88 2.15 24.94 9.99 -15.23 0 -41.16 -20.41 0 3.06 4.97 0 0.00 0.00 0 0.00 -15.00 0 -9.53 0.00 0 -16.92 0.00 0 -8.46 0.00 0 0.00 0.00 0 -17.35 0.00 0 -17.35 0.00 0 -17.35 0.00 0 0.00 15.00 0 -35.48 0.00 0 -35.48 0.00 0 -35.48 0.00 0 0.00 25.00 0 -29.24 0.00 0 -29.24 0.00 0 -29.24 
-221.89 92.38 56.38 126.07 4.55 -3.93 -2.82 -14.97 -3.83 -0.00 21.66 -0.00 -11.73 -8.89 9.53 -0.10 -16.69 9.49 0.00 31.21 -0.00 22.03 -16.63 -11.27 -6.92 -8.16 0.48 -1.73 -1.79 0.02 -2.88 -2.77 0.07 -1.36 4.14 0.37 8.28 66.35 17.75 -17.54 25.92 10.16 9.27 -1.97 -4.53 4.96 -19.64 -18.05 -49.15 -16.26 43.89 -11.92 10.84 -1.99 -46.84 -0 24.87 16.85 -0 -4.95 3.34 -0 0.00 0 -0 0.00 -15 -0 40.66 0 -0 49.93 0 -0 24.96 0 -0 0.00 0 -0 30.69 0 -0 30.69 0 -0 30.69 0 -0 0.00 15 -0 43.84 0 -0 43.84 0 -0 43.84 0 -0 0.00 25 -0 46.25 0 -0 46.25 0 -0 46.25 -12.68 -1.63 3.39 -10.46 -25.50 35.69 -39.94 42.48 -52.10 0.98 24.2 9.20 -14.70 0 -42.08 -19.35 0 2.13 8.94 0 0.00 0.00 0 0.00 -15.00 0 -10.15 0.00 0 -16.91 0.00 0 -8.46 0.00 0 0.00 0.00 0 -17.43 0.00 0 -17.43 0.00 0 -17.43 0.00 0 0.00 15.00 0 -36.02 0.00 0 -36.02 0.00 0 -36.02 0.00 0 0.00 25.00 0 -29.05 0.00 0 -29.05 0.00 0 -29.05 
-221.88 92.38 56.44 125.95 4.52 -3.95 -2.79 -15.01 -3.78 0.00 21.71 -0.00 -11.61 -8.90 9.47 -0.05 -16.67 9.55 -0.00 31.22 -0.00 22.11 -16.58 -11.32 -6.89 -8.12 0.50 -1.73 -1.78 0.02 -2.87 -2.76 0.08 -1.35 4.14 0.37 8.24 66.30 17.69 -17.53 25.94 10.11 9.27 -1.99 -4.53 5.06 -19.70 -18.02 -49.22 -16.37 43.88 -11.94 10.87 -1.96 -46.84 -0 24.86 16.86 -0 -4.96 3.33 -0 0.00 0 -0 0.00 -15 -0 40.66 0 -0 49.82 0 -0 24.91 0 -0 0.00 0 -0 30.67 0 -0 30.67 0 -0 30.67 0 -0 0.00 15 -0 43.81 0 -0 43.81 0 -0 43.81 0 -0 0.00 25 -0 46.20 0 -0 46.20 0 -0 46.20 -12.72 -1.62 3.41 -10.52 -25.20 35.87 -45.29 38.88 -46.81 -0.48 23.61 8.53 -13.97 0 -43.25 -17.90 0 0.96 13.83 0 0.00 0.00 0 0.00 -15.00 0 -10.98 0.00 0 -16.94 0.00 0 -8.47 0.00 0 0.00 0.00 0 -17.74 0.00 0 -17.74 0.00 0 -17.74 0.00 0 0.00 15.00 0 -36.30 0.00 0 -36.30 0.00 0 -36.30 0.00 0 0.00 25.00 0 -28.98 0.00 0 -28.98 0.00 0 -28.98 
-221.87 92.37 56.51 125.83 4.51 -3.96 -2.77 -15.09 -3.73 -0.00 21.78 -0.00 -11.53 -8.89 9.41 -0.01 -16.67 9.60 0.00 31.23 -0.00 22.17 -16.53 -11.37 -6.85 -8.08 0.51 -1.72 -1.77 0.03 -2.85 -2.75 0.08 -1.35 4.14 0.37 8.20 66.24 17.62 -17.52 25.95 10.08 9.25 -2.01 -4.53 5.13 -19.74 -18.03 -49.35 -16.53 43.88 -11.97 10.9 -1.90 -46.76 -0 24.84 17.02 -0 -4.98 3.11 -0 0.00 0 -0 0.00 -15 -0 40.63 0 -0 49.81 0 -0 24.90 0 -0 0.00 0 -0 30.64 0 -0 30.64 0 -0 30.64 0 -0 0.00 15 -0 43.79 0 -0 43.79 0 -0 43.79 0 -0 0.00 25 -0 46.17 0 -0 46.17 0 -0 46.17 -12.76 -1.62 3.42 -10.68 -24.87 36.03 -50.91 33.74 -40.93 -2.29 23.33 8.12 -13.14 0 -44.44 -16.23 0 -0.23 19.08 0 0.00 0.00 0 0.00 -15.00 0 -12.06 0.00 0 -16.84 0.00 0 -8.42 0.00 0 0.00 0.00 0 -20.07 0.00 0 -20.07 0.00 0 -20.07 0.00 0 0.00 15.00 0 -36.41 0.00 0 -36.41 0.00 0 -36.41 0.00 0 0.00 25.00 0 -28.78 0.00 0 -28.78 0.00 0 -28.78 
-221.87 92.37 56.59 125.74 4.50 -3.97 -2.77 -15.17 -3.68 0.00 21.87 0.00 -11.41 -8.90 9.34 0.01 -16.68 9.65 0.00 31.24 -0.00 22.23 -16.46 -11.41 -6.84 -8.02 0.52 -1.71 -1.76 0.03 -2.85 -2.73 0.09 -1.35 4.13 0.37 8.15 66.15 17.53 -17.49 25.96 10.04 9.26 -2.05 -4.53 5.19 -19.78 -18.03 -49.49 -16.72 43.89 -12.01 10.92 -1.86 -46.67 -0 24.84 17.2 -0 -4.98 2.85 -0 0.00 0 -0 0.00 -15 -0 40.61 0 -0 49.75 0 -0 24.87 0 -0 0.00 0 -0 30.61 0 -0 30.61 0 -0 30.61 0 -0 0.00 15 -0 43.77 0 -0 43.77 0 -0 43.77 0 -0 0.00 25 -0 46.15 0 -0 46.15 0 -0 46.15 -12.78 -1.64 3.44 -10.87 -24.49 36.14 -56.45 26.72 -34.86 -4.54 23.28 8.04 -12.22 0 -45.70 -14.40 0 -1.48 24.09 0 0.00 0.00 0 0.00 -15.00 0 -13.57 0.00 0 -16.79 0.00 0 -8.39 0.00 0 0.00 0.00 0 -21.10 0.00 0 -21.10 0.00 0 -21.10 0.00 0 0.00 15.00 0 -36.60 0.00 0 -36.60 0.00 0 -36.60 0.00 0 0.00 25.00 0 -28.45 0.00 0 -28.45 0.00 0 -28.45 
-221.86 92.36 56.68 125.63 4.49 -3.98 -2.77 -15.25 -3.62 0.00 21.95 0.00 -11.30 -8.90 9.27 -0.00 -16.67 9.71 0.00 31.23 0.00 22.32 -16.39 -11.47 -6.81 -7.96 0.52 -1.71 -1.75 0.03 -2.84 -2.71 0.09 -1.34 4.13 0.37 8.09 66.06 17.45 -17.46 25.97 10.01 9.25 -2.08 -4.54 5.29 -19.87 -17.99 -49.58 -16.91 43.83 -12.07 10.91 -1.74 -46.64 -0 24.85 17.26 -0 -4.98 2.75 -0 0.00 0 -0 0.00 -15 -0 40.61 0 -0 49.68 0 -0 24.84 0 -0 0.00 0 -0 30.57 0 -0 30.57 0 -0 30.57 0 -0 0.00 15 -0 43.75 0 -0 43.75 0 -0 43.75 0 -0 0.00 25 -0 46.12 0 -0 46.12 0 -0 46.12 -12.82 -1.64 3.45 -11.06 -24.10 36.27 -61.39 17.84 -29.22 -7.23 23.48 8.44 -11.28 0 -47.01 -12.51 0 -2.79 28.20 0 0.00 0.00 0 0.00 -15.00 0 -15.52 0.00 0 -16.99 0.00 0 -8.50 0.00 0 0.00 0.00 0 -22.41 0.00 0 -22.41 0.00 0 -22.41 0.00 0 0.00 15.00 0 -36.62 0.00 0 -36.62 0.00 0 -36.62 0.00 0 0.00 25.00 0 -27.70 0.00 0 -27.70 0.00 0 -27.70 
-221.83 92.35 56.74 125.52 4.48 -3.99 -2.78 -15.31 -3.56 0.00 22.00 -0.00 -11.17 -8.92 9.20 0.01 -16.64 9.76 -0.00 31.21 -0.00 22.42 -16.34 -11.53 -6.78 -7.89 0.53 -1.70 -1.74 0.03 -2.82 -2.69 0.09 -1.34 4.12 0.37 8.04 65.97 17.37 -17.43 25.98 9.98 9.23 -2.11 -4.55 5.38 -19.95 -17.94 -49.68 -17.16 43.81 -12.17 10.9 -1.63 -46.59 -0 24.85 17.35 -0 -4.97 2.61 -0 0.00 0 -0 0.00 -15 -0 40.60 0 -0 49.64 0 -0 24.82 0 -0 0.00 0 -0 30.52 0 -0 30.52 0 -0 30.52 0 -0 0.00 15 -0 43.73 0 -0 43.73 0 -0 43.73 0 -0 0.00 25 -0 46.09 0 -0 46.09 0 -0 46.09 -12.90 -1.62 3.44 -11.29 -23.70 36.43 -64.94 8.49 -24.73 -10.02 23.6 9.52 -10.37 0 -48.43 -10.69 0 -4.21 30.41 0 0.00 0.00 0 0.00 -15.00 0 -17.71 0.00 0 -17.37 0.00 0 -8.68 0.00 0 0.00 0.00 0 -23.79 0.00 0 -23.79 0.00 0 -23.79 0.00 0 0.00 15.00 0 -36.16 0.00 0 -36.16 0.00 0 -36.16 0.00 0 0.00 25.00 0 -26.49 0.00 0 -26.49 0.00 0 -26.49 
